<svg width="1728" height="1117" viewBox="0 0 1728 1117" fill="none" xmlns="http://www.w3.org/2000/svg">
<rect width="1728" height="1117" fill="#1E1E1E"/>
<path d="M74 148H161V239H74V148Z" fill="#D9D9D9"/>
<g clip-path="url(#clip0_0_1)">
<rect width="1728" height="1117" rx="88" fill="white"/>
<g filter="url(#filter0_d_0_1)">
<path d="M453.175 85.7335C462.959 102.901 481.2 113.5 500.959 113.5H690.6C708.694 113.5 725.63 104.601 735.894 89.6996L751.667 66.8005C761.931 51.8995 778.868 43 796.962 43H872.506C892.265 43 910.506 53.5993 920.29 70.7663L929.675 87.2338C939.459 104.401 957.7 115 977.459 115H1167.1C1185.19 115 1202.13 106.101 1212.39 91.1995L1229.2 66.8004C1239.46 51.8994 1256.4 43 1274.5 43H1349.51C1369.26 43 1387.51 53.5993 1397.29 70.7663L1406.68 87.2338C1416.46 104.401 1434.7 115 1454.46 115H1614C1644.38 115 1669 139.624 1669 170V874C1669 904.376 1644.38 929 1614 929H113C82.6243 929 58 904.376 58 874V213.344C58 184.151 80.8078 160.044 109.956 158.429L154.123 155.981C180.181 154.536 201.636 134.979 205.48 109.165L208.348 89.8995C212.361 62.9495 235.501 43 262.749 43H396.861C416.62 43 434.861 53.5995 444.645 70.7666L453.175 85.7335Z" fill="#F2B2DC"/>
</g>
<path d="M1667.23 305.428L1663.52 304.562C1662.27 304.272 1660.92 304.402 1659.72 304.93C1658.34 305.54 1657.3 306.59 1656.8 307.889C1656.26 309.267 1654.64 310.988 1653.32 311.569C1652.45 311.951 1651.2 311.156 1650.63 309.868L1648.62 305.301C1648.03 303.971 1648.63 302.407 1649.97 301.819L1658.29 298.149C1663.16 296.005 1663.48 294.794 1663.63 294.213C1663.79 293.615 1663.68 292.994 1663.32 292.504C1662.85 291.869 1662.09 291.416 1660.91 291.077L1657.19 290.211C1655.94 289.92 1654.59 290.051 1653.4 290.579C1652.01 291.188 1650.98 292.239 1650.47 293.537C1649.94 294.917 1647.94 296.8 1646.2 297.566L1633.77 303.046C1632.44 303.632 1630.88 303.027 1630.29 301.694L1627.67 295.76C1627.09 294.428 1627.69 292.863 1629.03 292.276L1647.6 284.085C1652.46 281.943 1652.79 280.732 1652.94 280.15C1653.1 279.553 1652.99 278.931 1652.63 278.441C1652.16 277.807 1651.39 277.354 1650.22 277.014L1646.5 276.148C1645.25 275.858 1643.9 275.989 1642.7 276.516C1641.32 277.125 1640.29 278.176 1639.78 279.475C1639.25 280.855 1637.25 282.737 1635.51 283.504L1626.84 287.325C1625.51 287.913 1623.95 287.306 1623.36 285.973L1621.8 282.432C1621.11 280.881 1621.49 279.008 1622.22 277.957C1622.77 277.171 1622.8 276.281 1622.31 275.572C1621.01 273.712 1616.37 274.788 1615.45 275.021C1615.22 275.081 1614.99 275.159 1614.78 275.252C1612.43 276.288 1611.58 279.148 1612.8 281.908L1616.02 289.21C1616.61 290.542 1616 292.107 1614.67 292.693L1601.55 298.475C1599.57 299.35 1596.38 301.141 1597.32 303.295C1598.27 305.45 1601.75 304.302 1603.74 303.426L1616.85 297.645C1618.18 297.058 1619.74 297.664 1620.33 298.997L1622.95 304.931C1623.53 306.264 1622.93 307.828 1621.59 308.415L1604.38 316.004C1602.39 316.88 1599.2 318.67 1600.15 320.825C1601.1 322.979 1604.58 321.831 1606.56 320.956L1637.79 307.189C1639.12 306.601 1640.69 307.208 1641.27 308.541L1643.29 313.107C1643.87 314.44 1643.27 316.003 1641.94 316.591L1612.07 329.756C1610.09 330.632 1606.9 332.422 1607.85 334.577C1608.8 336.731 1612.27 335.583 1614.26 334.707L1644.12 321.543C1645.45 320.957 1647.01 321.562 1647.6 322.895L1654.94 339.533C1655.49 340.78 1655.27 341.325 1654.03 341.874L1649.35 343.935C1646.03 345.397 1643.18 346.657 1644.12 348.792C1644.87 350.489 1646.95 350.074 1649.37 349.588C1649.66 349.527 1649.94 349.474 1650.22 349.421L1653.43 348.823C1654.01 348.697 1654.12 348.789 1654.3 349.201C1654.75 350.23 1655.33 350.931 1656.06 351.341C1656.91 351.819 1657.91 351.846 1658.88 351.416C1659.11 351.318 1659.34 351.19 1659.57 351.035C1661.07 350.053 1662.33 348.545 1663.32 346.558C1664.53 344.04 1664.43 341.17 1663.03 338.004L1654.95 319.656C1654.36 318.326 1654.97 316.76 1656.3 316.173L1664.62 312.502C1669.49 310.358 1669.81 309.147 1669.96 308.566C1670.12 307.968 1670.01 307.347 1669.65 306.857C1669.18 306.219 1668.41 305.767 1667.23 305.428Z" fill="white"/>
<path d="M1595.18 311.779L1593.66 311.559C1593.46 311.215 1593.13 310.225 1593.19 308.679C1593.35 304.865 1593.47 301.013 1593.56 297.228C1593.6 295.387 1594.74 293.24 1595.83 292.227C1596.56 291.54 1596.82 290.602 1596.5 289.72C1595.73 287.541 1591.8 286.799 1590.49 286.71L1590.09 286.683C1589.18 286.623 1588.33 286.768 1587.54 287.115C1585.54 287.995 1584.38 290.042 1584.59 292.33C1586.15 310.087 1585.89 324.499 1583.82 335.17C1583.74 335.589 1583.64 336.022 1583.55 336.45C1582.98 339.191 1582.75 340.444 1583.38 341.38C1583.66 341.792 1584.08 342.072 1584.57 342.155C1584.94 342.219 1585.33 342.167 1585.7 342.006C1587.24 341.328 1588.58 338.184 1589.09 336.862C1590.19 334.003 1591.07 330.9 1591.72 327.622L1610.32 369.815C1611.65 372.832 1613.64 372.234 1614.22 371.979C1614.68 371.776 1615.11 371.444 1615.53 370.965C1617.29 368.957 1616.98 365.039 1615.81 362.371L1597.07 319.866C1596.34 318.206 1596.53 316.482 1596.94 315.925C1597.77 314.803 1597.68 313.901 1597.46 313.342C1597.12 312.509 1596.36 311.985 1595.18 311.779Z" fill="white"/>
<path d="M1626.93 333.852C1625.39 333.7 1622.63 333.675 1621.35 334.239C1620.61 334.565 1620.32 335.08 1620.21 335.454C1620.07 335.948 1620.15 336.481 1620.43 336.918C1620.91 337.65 1621.79 338.005 1623.12 338.541C1624.01 338.898 1625.01 339.302 1625.88 339.824C1628.37 341.319 1630.92 343.805 1633.46 347.212C1633.49 347.25 1633.53 347.288 1633.56 347.325C1635.5 349.47 1637.23 349.342 1638.33 348.857C1640.95 347.701 1641.77 345.319 1640.52 342.486C1638.29 337.431 1633.72 334.528 1626.93 333.852Z" fill="white"/>
<path d="M1333.91 87.7801L1333.22 84.0288C1332.98 82.7684 1332.32 81.5842 1331.36 80.6984C1330.25 79.6752 1328.87 79.1458 1327.48 79.204C1326 79.264 1323.77 78.4636 1322.71 77.4874C1322.02 76.8463 1322.24 75.3767 1323.2 74.3407L1326.57 70.6681C1327.56 69.598 1329.23 69.528 1330.31 70.5143L1337 76.6756C1340.91 80.2737 1342.15 80.0828 1342.75 79.9926C1343.36 79.9014 1343.88 79.546 1344.19 79.0203C1344.58 78.3382 1344.69 77.4555 1344.53 76.2388L1343.84 72.4874C1343.6 71.227 1342.94 70.0428 1341.98 69.157C1340.87 68.1338 1339.49 67.6044 1338.1 67.6626C1336.62 67.7242 1334.1 66.6474 1332.7 65.3608L1322.7 56.1639C1321.63 55.1793 1321.56 53.5022 1322.55 52.4303L1326.94 47.6581C1327.92 46.5864 1329.6 46.5178 1330.67 47.5027L1345.61 61.2509C1349.52 64.8462 1350.76 64.6567 1351.36 64.5679C1351.97 64.4753 1352.49 64.1213 1352.79 63.5942C1353.19 62.9151 1353.3 62.0294 1353.14 60.8141L1352.44 57.0613C1352.21 55.8009 1351.55 54.6167 1350.59 53.7309C1349.48 52.7091 1348.1 52.1783 1346.71 52.2365C1345.23 52.2981 1342.7 51.2227 1341.3 49.9347L1334.33 43.5213C1333.26 42.5353 1333.19 40.8597 1334.18 39.7877L1336.8 36.9394C1337.95 35.692 1339.82 35.2911 1341.07 35.538C1342.01 35.7233 1342.84 35.3925 1343.29 34.6619C1344.48 32.7322 1341.63 28.9042 1341.05 28.1579C1340.9 27.9668 1340.74 27.7923 1340.57 27.6363C1338.68 25.8974 1335.72 26.2631 1333.68 28.4828L1328.27 34.3549C1327.29 35.4266 1325.61 35.4952 1324.54 34.5103L1313.99 24.8068C1312.4 23.3369 1309.48 21.1293 1307.89 22.8621C1306.29 24.5949 1308.73 27.319 1310.33 28.7889L1320.88 38.4909C1321.95 39.477 1322.02 41.1526 1321.03 42.2245L1316.64 46.9967C1315.65 48.0684 1313.98 48.137 1312.91 47.1521L1299.06 34.4144C1297.47 32.9446 1294.55 30.7369 1292.95 32.4697C1291.36 34.2025 1293.8 36.9269 1295.4 38.3967L1320.51 61.5036C1321.58 62.4896 1321.65 64.1652 1320.67 65.2372L1317.29 68.9098C1316.3 69.9815 1314.63 70.0515 1313.55 69.0652L1289.54 46.9686C1287.94 45.4988 1285.02 43.2911 1283.43 45.024C1281.84 46.7568 1284.28 49.4811 1285.88 50.951L1309.89 73.0461C1310.96 74.0307 1311.03 75.7077 1310.04 76.7797L1297.73 90.1602C1296.81 91.1636 1296.23 91.1861 1295.22 90.2646L1291.46 86.8039C1288.8 84.3509 1286.5 82.2355 1284.92 83.9527C1283.66 85.3169 1284.88 87.06 1286.29 89.0805C1286.46 89.3216 1286.63 89.5647 1286.78 89.7975L1288.62 92.4962C1288.97 92.9813 1288.92 93.1147 1288.62 93.446C1287.86 94.2734 1287.44 95.0806 1287.36 95.9141C1287.26 96.8832 1287.64 97.813 1288.42 98.5342C1288.6 98.7002 1288.81 98.8605 1289.05 99.0154C1290.55 99.9971 1292.44 100.548 1294.65 100.658C1297.44 100.759 1300.03 99.5172 1302.38 96.971L1315.95 82.2153C1316.94 81.1452 1318.61 81.0736 1319.69 82.0599L1326.38 88.2212C1330.29 91.8193 1331.53 91.6284 1332.13 91.5382C1332.74 91.447 1333.26 91.0916 1333.57 90.5659C1333.96 89.881 1334.07 88.9986 1333.91 87.7801Z" fill="white"/>
<path d="M1299.25 24.291L1298.85 22.812C1299.08 22.491 1299.85 21.7899 1301.3 21.2305C1304.86 19.8484 1308.43 18.4188 1311.94 16.9789C1313.64 16.2798 1316.07 16.4706 1317.43 17.06C1318.35 17.4597 1319.31 17.3152 1320 16.6733C1321.68 15.0909 1320.79 11.1995 1320.35 9.96L1320.21 9.5828C1319.91 8.7296 1319.43 7.99986 1318.8 7.41868C1317.19 5.94163 1314.85 5.69808 1312.84 6.7991C1297.19 15.3383 1283.88 20.8709 1273.27 23.2392C1272.85 23.333 1272.42 23.4227 1271.99 23.5107C1269.25 24.0811 1268.01 24.3751 1267.4 25.3292C1267.14 25.7502 1267.05 26.2474 1267.17 26.7257C1267.26 27.0944 1267.46 27.4314 1267.76 27.702C1268.99 28.8399 1272.41 28.8156 1273.83 28.7522C1276.89 28.6158 1280.09 28.1822 1283.35 27.46L1252.13 61.3934C1249.89 63.82 1251.24 65.4051 1251.7 65.833C1252.07 66.1736 1252.55 66.4336 1253.16 66.6267C1255.7 67.4334 1259.17 65.5882 1261.14 63.443L1292.6 29.2583C1293.82 27.9235 1295.48 27.4088 1296.16 27.5647C1297.52 27.8776 1298.31 27.4318 1298.73 27.0028C1299.36 26.3644 1299.54 25.4536 1299.25 24.291Z" fill="white"/>
<path d="M1291.73 62.2238C1291.25 60.7493 1290.17 58.208 1289.14 57.262C1288.55 56.7154 1287.96 56.6574 1287.57 56.7066C1287.06 56.7712 1286.61 57.0579 1286.32 57.4948C1285.84 58.2253 1285.87 59.1726 1285.91 60.6057C1285.94 61.562 1285.97 62.6467 1285.84 63.6485C1285.46 66.526 1284.21 69.8588 1282.1 73.5575C1282.08 73.5988 1282.06 73.6446 1282.04 73.6889C1280.85 76.3308 1281.66 77.8574 1282.54 78.6717C1284.65 80.611 1287.16 80.4077 1289.26 78.129C1293 74.0641 1293.83 68.7144 1291.73 62.2238Z" fill="white"/>
<circle cx="2.78584" cy="2.78584" r="2.78584" transform="matrix(0.70481 0.709396 -0.70481 0.709396 88.927 199)" fill="#D9D9D9"/>
<ellipse cx="1.50638" cy="1.3313" rx="1.50638" ry="1.3313" transform="matrix(0.70481 0.709396 -0.70481 0.709396 89.8766 217)" fill="#D9D9D9"/>
<ellipse cx="1.80869" cy="1.73839" rx="1.80869" ry="1.73839" transform="matrix(0.70481 0.709396 -0.70481 0.709396 125.45 184)" fill="#D9D9D9"/>
<circle cx="1.8188" cy="1.8188" r="1.8188" transform="matrix(0.70481 0.709396 -0.70481 0.709396 107.564 182)" fill="#D9D9D9"/>
<ellipse cx="2.1634" cy="2.09309" rx="2.1634" ry="2.09309" transform="matrix(0.70481 0.709396 -0.70481 0.709396 138.95 192)" fill="#D9D9D9"/>
<ellipse cx="2.98828" cy="2.86952" rx="2.98828" ry="2.86952" transform="matrix(0.70481 0.709396 -0.70481 0.709396 144.045 210)" fill="white"/>
<circle cx="268.5" cy="86.5" r="3.5" fill="white"/>
<circle cx="268.5" cy="108.5" r="3.5" fill="white"/>
<circle cx="268.5" cy="129.5" r="3.5" fill="white"/>
<circle cx="268.5" cy="151.5" r="3.5" fill="white"/>
<circle cx="185.5" cy="256.5" r="3.5" fill="white"/>
<circle cx="268.5" cy="172.5" r="3.5" fill="white"/>
<ellipse cx="185.5" cy="235" rx="3.5" ry="3" fill="white"/>
<ellipse cx="185.5" cy="278" rx="3.5" ry="3" fill="white"/>
<circle cx="291.5" cy="108.5" r="3.5" fill="white"/>
<circle cx="291.5" cy="129.5" r="3.5" fill="white"/>
<circle cx="291.5" cy="151.5" r="3.5" fill="white"/>
<circle cx="208.5" cy="213.5" r="3.5" fill="white"/>
<circle cx="208.5" cy="256.5" r="3.5" fill="white"/>
<ellipse cx="208.5" cy="235" rx="3.5" ry="3" fill="white"/>
<circle cx="314.5" cy="86.5" r="3.5" fill="white"/>
<circle cx="314.5" cy="108.5" r="3.5" fill="white"/>
<circle cx="314.5" cy="129.5" r="3.5" fill="white"/>
<circle cx="314.5" cy="151.5" r="3.5" fill="white"/>
<circle cx="231.5" cy="213.5" r="3.5" fill="white"/>
<circle cx="231.5" cy="256.5" r="3.5" fill="white"/>
<circle cx="314.5" cy="172.5" r="3.5" fill="white"/>
<ellipse cx="231.5" cy="278" rx="3.5" ry="3" fill="white"/>
<circle cx="337.5" cy="86.5" r="3.5" fill="white"/>
<circle cx="337.5" cy="108.5" r="3.5" fill="white"/>
<circle cx="337.5" cy="129.5" r="3.5" fill="white"/>
<circle cx="337.5" cy="151.5" r="3.5" fill="white"/>
<circle cx="337.5" cy="172.5" r="3.5" fill="white"/>
<circle cx="360.5" cy="108.5" r="3.5" fill="white"/>
<circle cx="360.5" cy="151.5" r="3.5" fill="white"/>
<ellipse cx="2.00441" cy="2.07472" rx="2.00441" ry="2.07472" transform="matrix(0.70481 0.709396 -0.70481 0.709396 131.925 230)" fill="#D9D9D9"/>
<ellipse cx="2.26212" cy="1.96683" rx="2.26212" ry="1.96683" transform="matrix(0.70481 0.709396 -0.70481 0.709396 110.772 236)" fill="white"/>
<path d="M863.245 48.5284C862.557 48.5284 862 47.971 862 47.2833C862 46.5956 862.557 46.0381 863.245 46.0381C863.933 46.0381 864.49 46.5956 864.49 47.2833C864.49 47.971 863.933 48.5284 863.245 48.5284Z" fill="white"/>
</g>
<defs>
<filter id="filter0_d_0_1" x="54" y="43" width="1619" height="894" filterUnits="userSpaceOnUse" color-interpolation-filters="sRGB">
<feFlood flood-opacity="0" result="BackgroundImageFix"/>
<feColorMatrix in="SourceAlpha" type="matrix" values="0 0 0 0 0 0 0 0 0 0 0 0 0 0 0 0 0 0 127 0" result="hardAlpha"/>
<feOffset dy="4"/>
<feGaussianBlur stdDeviation="2"/>
<feComposite in2="hardAlpha" operator="out"/>
<feColorMatrix type="matrix" values="0 0 0 0 0 0 0 0 0 0 0 0 0 0 0 0 0 0 0.25 0"/>
<feBlend mode="normal" in2="BackgroundImageFix" result="effect1_dropShadow_0_1"/>
<feBlend mode="normal" in="SourceGraphic" in2="effect1_dropShadow_0_1" result="shape"/>
</filter>
<clipPath id="clip0_0_1">
<rect width="1728" height="1117" rx="88" fill="white"/>
</clipPath>
</defs>
</svg>
