<svg width="338" height="74" viewBox="0 0 338 74" fill="none" xmlns="http://www.w3.org/2000/svg">
<rect x="2" y="2.5" width="334" height="69" rx="34.5" stroke="white" stroke-width="4"/>
<path d="M47.42 44.5C47.2587 44.5 47.134 44.456 47.046 44.368C46.958 44.2653 46.914 44.1407 46.914 43.994V29.628C46.914 29.4667 46.958 29.342 47.046 29.254C47.134 29.1513 47.2587 29.1 47.42 29.1H56.506C56.6673 29.1 56.792 29.1513 56.88 29.254C56.968 29.342 57.012 29.4667 57.012 29.628V30.464C57.012 30.6253 56.968 30.75 56.88 30.838C56.792 30.926 56.6673 30.97 56.506 30.97H49.026V35.788H56.022C56.1833 35.788 56.308 35.8393 56.396 35.942C56.484 36.03 56.528 36.1547 56.528 36.316V37.13C56.528 37.2767 56.484 37.4013 56.396 37.504C56.308 37.592 56.1833 37.636 56.022 37.636H49.026V42.63H56.682C56.8433 42.63 56.968 42.674 57.056 42.762C57.144 42.85 57.188 42.9747 57.188 43.136V43.994C57.188 44.1407 57.144 44.2653 57.056 44.368C56.968 44.456 56.8433 44.5 56.682 44.5H47.42ZM60.4758 44.5C60.3291 44.5 60.2045 44.456 60.1018 44.368C60.0138 44.2653 59.9698 44.1407 59.9698 43.994V33.566C59.9698 33.4193 60.0138 33.302 60.1018 33.214C60.2045 33.1113 60.3291 33.06 60.4758 33.06H61.4658C61.6125 33.06 61.7298 33.1113 61.8178 33.214C61.9205 33.302 61.9718 33.4193 61.9718 33.566V34.336C62.3091 33.8813 62.7345 33.522 63.2478 33.258C63.7611 32.9793 64.3771 32.84 65.0958 32.84C66.7531 32.8253 67.9265 33.5 68.6158 34.864C68.9531 34.248 69.4445 33.7567 70.0898 33.39C70.7351 33.0233 71.4685 32.84 72.2898 32.84C73.0525 32.84 73.7418 33.016 74.3578 33.368C74.9885 33.72 75.4798 34.2553 75.8318 34.974C76.1985 35.678 76.3818 36.5653 76.3818 37.636V43.994C76.3818 44.1407 76.3305 44.2653 76.2278 44.368C76.1398 44.456 76.0225 44.5 75.8758 44.5H74.8418C74.6951 44.5 74.5705 44.456 74.4678 44.368C74.3798 44.2653 74.3358 44.1407 74.3358 43.994V37.834C74.3358 37.0127 74.2185 36.3673 73.9838 35.898C73.7491 35.4287 73.4338 35.0987 73.0378 34.908C72.6418 34.7173 72.2091 34.622 71.7398 34.622C71.3585 34.622 70.9698 34.7173 70.5738 34.908C70.1778 35.0987 69.8478 35.4287 69.5838 35.898C69.3345 36.3673 69.2098 37.0127 69.2098 37.834V43.994C69.2098 44.1407 69.1585 44.2653 69.0558 44.368C68.9678 44.456 68.8505 44.5 68.7038 44.5H67.6698C67.5231 44.5 67.3985 44.456 67.2958 44.368C67.2078 44.2653 67.1638 44.1407 67.1638 43.994V37.834C67.1638 37.0127 67.0391 36.3673 66.7898 35.898C66.5405 35.4287 66.2178 35.0987 65.8218 34.908C65.4258 34.7173 65.0078 34.622 64.5678 34.622C64.1865 34.622 63.7978 34.7173 63.4018 34.908C63.0058 35.0987 62.6758 35.4287 62.4118 35.898C62.1625 36.3673 62.0378 37.0053 62.0378 37.812V43.994C62.0378 44.1407 61.9865 44.2653 61.8838 44.368C61.7958 44.456 61.6785 44.5 61.5318 44.5H60.4758ZM84.0746 44.72C82.5639 44.72 81.3612 44.258 80.4666 43.334C79.5719 42.3953 79.0806 41.1193 78.9926 39.506C78.9779 39.3153 78.9706 39.0733 78.9706 38.78C78.9706 38.472 78.9779 38.2227 78.9926 38.032C79.0512 36.9907 79.2932 36.0813 79.7186 35.304C80.1439 34.512 80.7232 33.9033 81.4566 33.478C82.2046 33.0527 83.0772 32.84 84.0746 32.84C85.1892 32.84 86.1206 33.0747 86.8686 33.544C87.6312 34.0133 88.2106 34.6807 88.6066 35.546C89.0026 36.4113 89.2006 37.4233 89.2006 38.582V38.956C89.2006 39.1173 89.1492 39.242 89.0466 39.33C88.9586 39.418 88.8412 39.462 88.6946 39.462H81.0826C81.0826 39.4767 81.0826 39.506 81.0826 39.55C81.0826 39.594 81.0826 39.6307 81.0826 39.66C81.1119 40.2613 81.2439 40.826 81.4786 41.354C81.7132 41.8673 82.0506 42.2853 82.4906 42.608C82.9306 42.9307 83.4586 43.092 84.0746 43.092C84.6026 43.092 85.0426 43.0113 85.3946 42.85C85.7466 42.6887 86.0326 42.5127 86.2526 42.322C86.4726 42.1167 86.6192 41.9627 86.6926 41.86C86.8246 41.6693 86.9272 41.5593 87.0006 41.53C87.0739 41.486 87.1912 41.464 87.3526 41.464H88.4086C88.5552 41.464 88.6726 41.508 88.7606 41.596C88.8632 41.6693 88.9072 41.7793 88.8926 41.926C88.8779 42.146 88.7606 42.4173 88.5406 42.74C88.3206 43.048 88.0052 43.356 87.5946 43.664C87.1839 43.972 86.6852 44.2287 86.0986 44.434C85.5119 44.6247 84.8372 44.72 84.0746 44.72ZM81.0826 37.944H87.1106V37.878C87.1106 37.218 86.9859 36.6313 86.7366 36.118C86.5019 35.6047 86.1572 35.2013 85.7026 34.908C85.2479 34.6 84.7052 34.446 84.0746 34.446C83.4439 34.446 82.9012 34.6 82.4466 34.908C82.0066 35.2013 81.6692 35.6047 81.4346 36.118C81.1999 36.6313 81.0826 37.218 81.0826 37.878V37.944ZM92.3371 44.5C92.1905 44.5 92.0658 44.456 91.9631 44.368C91.8751 44.2653 91.8311 44.1407 91.8311 43.994V33.588C91.8311 33.4413 91.8751 33.3167 91.9631 33.214C92.0658 33.1113 92.1905 33.06 92.3371 33.06H93.3491C93.4958 33.06 93.6205 33.1113 93.7231 33.214C93.8258 33.3167 93.8771 33.4413 93.8771 33.588V34.556C94.1705 34.0573 94.5738 33.6833 95.0871 33.434C95.6005 33.1847 96.2165 33.06 96.9351 33.06H97.8151C97.9618 33.06 98.0791 33.1113 98.1671 33.214C98.2551 33.302 98.2991 33.4193 98.2991 33.566V34.468C98.2991 34.6147 98.2551 34.732 98.1671 34.82C98.0791 34.908 97.9618 34.952 97.8151 34.952H96.4951C95.7031 34.952 95.0798 35.1867 94.6251 35.656C94.1705 36.1107 93.9431 36.734 93.9431 37.526V43.994C93.9431 44.1407 93.8918 44.2653 93.7891 44.368C93.6865 44.456 93.5618 44.5 93.4151 44.5H92.3371ZM104.638 49.34C103.641 49.34 102.82 49.208 102.174 48.944C101.544 48.68 101.045 48.3573 100.678 47.976C100.326 47.6093 100.07 47.2353 99.9082 46.854C99.7616 46.4873 99.6809 46.194 99.6662 45.974C99.6516 45.8273 99.6956 45.7027 99.7982 45.6C99.9156 45.4973 100.04 45.446 100.172 45.446H101.228C101.36 45.446 101.47 45.4753 101.558 45.534C101.646 45.5927 101.72 45.7173 101.778 45.908C101.866 46.128 101.998 46.37 102.174 46.634C102.35 46.9127 102.622 47.1473 102.988 47.338C103.355 47.5433 103.868 47.646 104.528 47.646C105.218 47.646 105.797 47.5507 106.266 47.36C106.736 47.184 107.088 46.8613 107.322 46.392C107.572 45.9373 107.696 45.3067 107.696 44.5V43.004C107.344 43.4587 106.882 43.84 106.31 44.148C105.738 44.4413 105.02 44.588 104.154 44.588C103.333 44.588 102.629 44.4487 102.042 44.17C101.456 43.8767 100.972 43.488 100.59 43.004C100.224 42.5053 99.9449 41.9407 99.7542 41.31C99.5782 40.6793 99.4756 40.0193 99.4462 39.33C99.4316 38.9193 99.4316 38.516 99.4462 38.12C99.4756 37.4307 99.5782 36.7707 99.7542 36.14C99.9449 35.5093 100.224 34.9447 100.59 34.446C100.972 33.9473 101.456 33.5587 102.042 33.28C102.629 32.9867 103.333 32.84 104.154 32.84C105.034 32.84 105.76 33.0087 106.332 33.346C106.919 33.6687 107.396 34.0647 107.762 34.534V33.588C107.762 33.4413 107.806 33.3167 107.894 33.214C107.997 33.1113 108.122 33.06 108.268 33.06H109.28C109.427 33.06 109.552 33.1113 109.654 33.214C109.757 33.3167 109.808 33.4413 109.808 33.588V44.258C109.808 45.2407 109.64 46.1133 109.302 46.876C108.98 47.6387 108.437 48.24 107.674 48.68C106.926 49.12 105.914 49.34 104.638 49.34ZM104.594 42.828C105.328 42.828 105.914 42.6593 106.354 42.322C106.809 41.9847 107.139 41.5593 107.344 41.046C107.564 40.5327 107.682 40.012 107.696 39.484C107.711 39.2787 107.718 39.0293 107.718 38.736C107.718 38.428 107.711 38.1713 107.696 37.966C107.682 37.438 107.564 36.9173 107.344 36.404C107.139 35.8907 106.809 35.4653 106.354 35.128C105.914 34.7907 105.328 34.622 104.594 34.622C103.861 34.622 103.274 34.7907 102.834 35.128C102.394 35.4507 102.079 35.8833 101.888 36.426C101.698 36.954 101.588 37.526 101.558 38.142C101.544 38.5233 101.544 38.912 101.558 39.308C101.588 39.924 101.698 40.5033 101.888 41.046C102.079 41.574 102.394 42.0067 102.834 42.344C103.274 42.6667 103.861 42.828 104.594 42.828ZM117.633 44.72C116.123 44.72 114.92 44.258 114.025 43.334C113.131 42.3953 112.639 41.1193 112.551 39.506C112.537 39.3153 112.529 39.0733 112.529 38.78C112.529 38.472 112.537 38.2227 112.551 38.032C112.61 36.9907 112.852 36.0813 113.277 35.304C113.703 34.512 114.282 33.9033 115.015 33.478C115.763 33.0527 116.636 32.84 117.633 32.84C118.748 32.84 119.679 33.0747 120.427 33.544C121.19 34.0133 121.769 34.6807 122.165 35.546C122.561 36.4113 122.759 37.4233 122.759 38.582V38.956C122.759 39.1173 122.708 39.242 122.605 39.33C122.517 39.418 122.4 39.462 122.253 39.462H114.641C114.641 39.4767 114.641 39.506 114.641 39.55C114.641 39.594 114.641 39.6307 114.641 39.66C114.671 40.2613 114.803 40.826 115.037 41.354C115.272 41.8673 115.609 42.2853 116.049 42.608C116.489 42.9307 117.017 43.092 117.633 43.092C118.161 43.092 118.601 43.0113 118.953 42.85C119.305 42.6887 119.591 42.5127 119.811 42.322C120.031 42.1167 120.178 41.9627 120.251 41.86C120.383 41.6693 120.486 41.5593 120.559 41.53C120.633 41.486 120.75 41.464 120.911 41.464H121.967C122.114 41.464 122.231 41.508 122.319 41.596C122.422 41.6693 122.466 41.7793 122.451 41.926C122.437 42.146 122.319 42.4173 122.099 42.74C121.879 43.048 121.564 43.356 121.153 43.664C120.743 43.972 120.244 44.2287 119.657 44.434C119.071 44.6247 118.396 44.72 117.633 44.72ZM114.641 37.944H120.669V37.878C120.669 37.218 120.545 36.6313 120.295 36.118C120.061 35.6047 119.716 35.2013 119.261 34.908C118.807 34.6 118.264 34.446 117.633 34.446C117.003 34.446 116.46 34.6 116.005 34.908C115.565 35.2013 115.228 35.6047 114.993 36.118C114.759 36.6313 114.641 37.218 114.641 37.878V37.944ZM125.896 44.5C125.749 44.5 125.624 44.456 125.522 44.368C125.434 44.2653 125.39 44.1407 125.39 43.994V33.566C125.39 33.4193 125.434 33.302 125.522 33.214C125.624 33.1113 125.749 33.06 125.896 33.06H126.93C127.076 33.06 127.194 33.1113 127.282 33.214C127.384 33.302 127.436 33.4193 127.436 33.566V34.534C127.817 34.0353 128.294 33.632 128.866 33.324C129.452 33.0013 130.2 32.84 131.11 32.84C132.063 32.84 132.87 33.0527 133.53 33.478C134.204 33.8887 134.71 34.468 135.048 35.216C135.385 35.9493 135.554 36.8073 135.554 37.79V43.994C135.554 44.1407 135.51 44.2653 135.422 44.368C135.334 44.456 135.216 44.5 135.07 44.5H133.97C133.823 44.5 133.698 44.456 133.596 44.368C133.508 44.2653 133.464 44.1407 133.464 43.994V37.9C133.464 36.8733 133.214 36.074 132.716 35.502C132.217 34.9153 131.484 34.622 130.516 34.622C129.606 34.622 128.873 34.9153 128.316 35.502C127.773 36.074 127.502 36.8733 127.502 37.9V43.994C127.502 44.1407 127.45 44.2653 127.348 44.368C127.26 44.456 127.142 44.5 126.996 44.5H125.896ZM143.352 44.72C142.31 44.72 141.408 44.522 140.646 44.126C139.898 43.7153 139.318 43.136 138.908 42.388C138.497 41.6253 138.277 40.716 138.248 39.66C138.233 39.44 138.226 39.1467 138.226 38.78C138.226 38.4133 138.233 38.12 138.248 37.9C138.277 36.844 138.497 35.942 138.908 35.194C139.318 34.4313 139.898 33.852 140.646 33.456C141.408 33.0453 142.31 32.84 143.352 32.84C144.202 32.84 144.928 32.9573 145.53 33.192C146.146 33.4267 146.652 33.7273 147.048 34.094C147.444 34.4607 147.737 34.8567 147.928 35.282C148.133 35.7073 148.243 36.1107 148.258 36.492C148.272 36.6387 148.228 36.756 148.126 36.844C148.023 36.932 147.898 36.976 147.752 36.976H146.696C146.549 36.976 146.439 36.9467 146.366 36.888C146.292 36.8147 146.219 36.6973 146.146 36.536C145.882 35.8173 145.522 35.3113 145.068 35.018C144.613 34.7247 144.048 34.578 143.374 34.578C142.494 34.578 141.775 34.8493 141.218 35.392C140.675 35.9347 140.382 36.8073 140.338 38.01C140.323 38.538 140.323 39.0513 140.338 39.55C140.382 40.7673 140.675 41.6473 141.218 42.19C141.775 42.718 142.494 42.982 143.374 42.982C144.048 42.982 144.613 42.8353 145.068 42.542C145.522 42.2487 145.882 41.7427 146.146 41.024C146.219 40.8627 146.292 40.7527 146.366 40.694C146.439 40.6207 146.549 40.584 146.696 40.584H147.752C147.898 40.584 148.023 40.628 148.126 40.716C148.228 40.804 148.272 40.9213 148.258 41.068C148.243 41.376 148.177 41.6913 148.06 42.014C147.942 42.3367 147.752 42.6667 147.488 43.004C147.238 43.3267 146.923 43.62 146.542 43.884C146.16 44.1333 145.698 44.3387 145.156 44.5C144.628 44.6467 144.026 44.72 143.352 44.72ZM152.55 48.68C152.433 48.68 152.33 48.636 152.242 48.548C152.154 48.46 152.11 48.3573 152.11 48.24C152.11 48.1813 152.117 48.1227 152.132 48.064C152.147 48.0053 152.176 47.932 152.22 47.844L153.914 43.818L149.712 33.896C149.639 33.72 149.602 33.5953 149.602 33.522C149.602 33.39 149.646 33.28 149.734 33.192C149.822 33.104 149.932 33.06 150.064 33.06H151.142C151.289 33.06 151.406 33.0967 151.494 33.17C151.582 33.2433 151.641 33.3313 151.67 33.434L155.014 41.442L158.446 33.434C158.49 33.3313 158.549 33.2433 158.622 33.17C158.71 33.0967 158.835 33.06 158.996 33.06H160.03C160.162 33.06 160.272 33.104 160.36 33.192C160.448 33.28 160.492 33.3827 160.492 33.5C160.492 33.5733 160.455 33.7053 160.382 33.896L154.134 48.306C154.09 48.4087 154.024 48.4967 153.936 48.57C153.863 48.6433 153.745 48.68 153.584 48.68H152.55ZM168.27 44.5C168.108 44.5 167.984 44.456 167.896 44.368C167.808 44.2653 167.764 44.1407 167.764 43.994V29.628C167.764 29.4667 167.808 29.342 167.896 29.254C167.984 29.1513 168.108 29.1 168.27 29.1H174.298C175.398 29.1 176.292 29.2833 176.982 29.65C177.686 30.002 178.199 30.486 178.522 31.102C178.859 31.718 179.028 32.4073 179.028 33.17C179.028 33.7713 178.925 34.292 178.72 34.732C178.529 35.1573 178.287 35.5093 177.994 35.788C177.7 36.052 177.414 36.2573 177.136 36.404C177.708 36.6827 178.214 37.1373 178.654 37.768C179.108 38.3987 179.336 39.1613 179.336 40.056C179.336 40.8627 179.152 41.6033 178.786 42.278C178.419 42.9527 177.869 43.4953 177.136 43.906C176.417 44.302 175.522 44.5 174.452 44.5H168.27ZM169.92 42.718H174.166C175.119 42.718 175.852 42.4613 176.366 41.948C176.879 41.4347 177.136 40.804 177.136 40.056C177.136 39.2787 176.879 38.6407 176.366 38.142C175.852 37.6287 175.119 37.372 174.166 37.372H169.92V42.718ZM169.92 35.612H173.968C174.906 35.612 175.618 35.3993 176.102 34.974C176.586 34.534 176.828 33.94 176.828 33.192C176.828 32.444 176.586 31.872 176.102 31.476C175.618 31.08 174.906 30.882 173.968 30.882H169.92V35.612ZM186.441 44.72C185.502 44.72 184.703 44.5147 184.043 44.104C183.398 43.6787 182.906 43.092 182.569 42.344C182.232 41.596 182.063 40.738 182.063 39.77V33.566C182.063 33.4193 182.107 33.302 182.195 33.214C182.298 33.1113 182.422 33.06 182.569 33.06H183.669C183.816 33.06 183.933 33.1113 184.021 33.214C184.124 33.302 184.175 33.4193 184.175 33.566V39.66C184.175 41.8453 185.128 42.938 187.035 42.938C187.944 42.938 188.67 42.652 189.213 42.08C189.77 41.4933 190.049 40.6867 190.049 39.66V33.566C190.049 33.4193 190.093 33.302 190.181 33.214C190.284 33.1113 190.408 33.06 190.555 33.06H191.633C191.794 33.06 191.919 33.1113 192.007 33.214C192.095 33.302 192.139 33.4193 192.139 33.566V43.994C192.139 44.1407 192.095 44.2653 192.007 44.368C191.919 44.456 191.794 44.5 191.633 44.5H190.621C190.474 44.5 190.35 44.456 190.247 44.368C190.159 44.2653 190.115 44.1407 190.115 43.994V43.026C189.719 43.5393 189.235 43.95 188.663 44.258C188.106 44.566 187.365 44.72 186.441 44.72ZM199.873 44.5C199.052 44.5 198.385 44.346 197.871 44.038C197.358 43.7153 196.984 43.268 196.749 42.696C196.515 42.1093 196.397 41.42 196.397 40.628V34.82H194.681C194.535 34.82 194.41 34.776 194.307 34.688C194.219 34.5853 194.175 34.4607 194.175 34.314V33.566C194.175 33.4193 194.219 33.302 194.307 33.214C194.41 33.1113 194.535 33.06 194.681 33.06H196.397V29.386C196.397 29.2393 196.441 29.122 196.529 29.034C196.632 28.9313 196.757 28.88 196.903 28.88H197.937C198.084 28.88 198.201 28.9313 198.289 29.034C198.392 29.122 198.443 29.2393 198.443 29.386V33.06H201.171C201.318 33.06 201.435 33.1113 201.523 33.214C201.626 33.302 201.677 33.4193 201.677 33.566V34.314C201.677 34.4607 201.626 34.5853 201.523 34.688C201.435 34.776 201.318 34.82 201.171 34.82H198.443V40.474C198.443 41.1633 198.561 41.706 198.795 42.102C199.03 42.498 199.448 42.696 200.049 42.696H201.391C201.538 42.696 201.655 42.7473 201.743 42.85C201.846 42.938 201.897 43.0553 201.897 43.202V43.994C201.897 44.1407 201.846 44.2653 201.743 44.368C201.655 44.456 201.538 44.5 201.391 44.5H199.873ZM208.467 44.5C207.646 44.5 206.978 44.346 206.465 44.038C205.952 43.7153 205.578 43.268 205.343 42.696C205.108 42.1093 204.991 41.42 204.991 40.628V34.82H203.275C203.128 34.82 203.004 34.776 202.901 34.688C202.813 34.5853 202.769 34.4607 202.769 34.314V33.566C202.769 33.4193 202.813 33.302 202.901 33.214C203.004 33.1113 203.128 33.06 203.275 33.06H204.991V29.386C204.991 29.2393 205.035 29.122 205.123 29.034C205.226 28.9313 205.35 28.88 205.497 28.88H206.531C206.678 28.88 206.795 28.9313 206.883 29.034C206.986 29.122 207.037 29.2393 207.037 29.386V33.06H209.765C209.912 33.06 210.029 33.1113 210.117 33.214C210.22 33.302 210.271 33.4193 210.271 33.566V34.314C210.271 34.4607 210.22 34.5853 210.117 34.688C210.029 34.776 209.912 34.82 209.765 34.82H207.037V40.474C207.037 41.1633 207.154 41.706 207.389 42.102C207.624 42.498 208.042 42.696 208.643 42.696H209.985C210.132 42.696 210.249 42.7473 210.337 42.85C210.44 42.938 210.491 43.0553 210.491 43.202V43.994C210.491 44.1407 210.44 44.2653 210.337 44.368C210.249 44.456 210.132 44.5 209.985 44.5H208.467ZM217.281 44.72C216.166 44.72 215.235 44.5073 214.487 44.082C213.739 43.6567 213.167 43.07 212.771 42.322C212.375 41.5593 212.155 40.694 212.111 39.726C212.096 39.4767 212.089 39.1613 212.089 38.78C212.089 38.384 212.096 38.0687 212.111 37.834C212.155 36.8513 212.375 35.986 212.771 35.238C213.181 34.49 213.761 33.9033 214.509 33.478C215.257 33.0527 216.181 32.84 217.281 32.84C218.381 32.84 219.305 33.0527 220.053 33.478C220.801 33.9033 221.373 34.49 221.769 35.238C222.179 35.986 222.407 36.8513 222.451 37.834C222.465 38.0687 222.473 38.384 222.473 38.78C222.473 39.1613 222.465 39.4767 222.451 39.726C222.407 40.694 222.187 41.5593 221.791 42.322C221.395 43.07 220.823 43.6567 220.075 44.082C219.327 44.5073 218.395 44.72 217.281 44.72ZM217.281 43.026C218.19 43.026 218.916 42.74 219.459 42.168C220.001 41.5813 220.295 40.7307 220.339 39.616C220.353 39.396 220.361 39.1173 220.361 38.78C220.361 38.4427 220.353 38.164 220.339 37.944C220.295 36.8293 220.001 35.986 219.459 35.414C218.916 34.8273 218.19 34.534 217.281 34.534C216.371 34.534 215.638 34.8273 215.081 35.414C214.538 35.986 214.252 36.8293 214.223 37.944C214.208 38.164 214.201 38.4427 214.201 38.78C214.201 39.1173 214.208 39.396 214.223 39.616C214.252 40.7307 214.538 41.5813 215.081 42.168C215.638 42.74 216.371 43.026 217.281 43.026ZM225.734 44.5C225.587 44.5 225.462 44.456 225.36 44.368C225.272 44.2653 225.228 44.1407 225.228 43.994V33.566C225.228 33.4193 225.272 33.302 225.36 33.214C225.462 33.1113 225.587 33.06 225.734 33.06H226.768C226.914 33.06 227.032 33.1113 227.12 33.214C227.222 33.302 227.274 33.4193 227.274 33.566V34.534C227.655 34.0353 228.132 33.632 228.704 33.324C229.29 33.0013 230.038 32.84 230.948 32.84C231.901 32.84 232.708 33.0527 233.368 33.478C234.042 33.8887 234.548 34.468 234.886 35.216C235.223 35.9493 235.392 36.8073 235.392 37.79V43.994C235.392 44.1407 235.348 44.2653 235.26 44.368C235.172 44.456 235.054 44.5 234.908 44.5H233.808C233.661 44.5 233.536 44.456 233.434 44.368C233.346 44.2653 233.302 44.1407 233.302 43.994V37.9C233.302 36.8733 233.052 36.074 232.554 35.502C232.055 34.9153 231.322 34.622 230.354 34.622C229.444 34.622 228.711 34.9153 228.154 35.502C227.611 36.074 227.34 36.8733 227.34 37.9V43.994C227.34 44.1407 227.288 44.2653 227.186 44.368C227.098 44.456 226.98 44.5 226.834 44.5H225.734Z" fill="white"/>
<path d="M290.576 34.498C292.428 35.7139 292.367 38.503 290.392 39.6143L273.586 49.0674L273.369 49.1797C271.186 50.1988 268.732 48.3093 269.159 45.9385L269.211 45.7002L271.402 37.251C271.434 37.1276 271.442 36.9996 271.426 36.874L271.402 36.749L269.211 28.2998C268.547 25.7398 271.281 23.6361 273.586 24.9326L290.392 34.3857L290.576 34.498Z" stroke="white" stroke-width="2"/>
</svg>
