<svg width="91" height="143" viewBox="0 0 91 143" fill="none" xmlns="http://www.w3.org/2000/svg">
<path d="M69.6222 35.5864C71.2072 36.0197 72.9006 36.2551 74.6588 36.2551C76.4169 36.2551 78.1078 36.0197 79.6954 35.5864C80.3591 35.4059 80.9169 35.7769 80.9493 36.4643C80.9792 37.1105 81.009 37.8265 81.0427 38.5175C81.0763 39.2048 80.5533 39.795 79.866 39.8349C75.9014 40.0615 73.4174 40.0615 69.4516 39.8349C68.763 39.7938 68.2426 39.2023 68.2749 38.515C68.3085 37.8227 68.3384 37.1055 68.3683 36.4618C68.3994 35.7745 68.9585 35.4059 69.6222 35.5864Z" fill="white"/>
<path d="M68.5913 9.17688C70.4615 8.52691 72.5085 8.16333 74.6576 8.16333C76.8067 8.16333 78.8538 8.52691 80.724 9.17688C86.4877 11.1803 90.5444 15.948 90.5444 21.5163C90.5444 27.0945 86.4716 31.8684 80.6903 33.8656C78.8289 34.5094 76.7943 34.8692 74.6576 34.8692C72.5209 34.8692 70.4851 34.5094 68.6249 33.8656C62.8437 31.8697 58.7708 27.0945 58.7708 21.5163C58.7708 15.948 62.8275 11.1816 68.5913 9.17688Z" fill="white"/>
<path d="M75.0212 43.5504C74.3335 43.5504 73.7761 42.9929 73.7761 42.3052C73.7761 41.6176 74.3335 41.0601 75.0212 41.0601C75.7089 41.0601 76.2664 41.6176 76.2664 42.3052C76.2664 42.9929 75.7089 43.5504 75.0212 43.5504Z" fill="white"/>
<path d="M75.2451 2.49029C74.5574 2.49029 73.9999 1.93282 73.9999 1.24515C73.9999 0.557471 74.5574 0 75.2451 0C75.9328 0 76.4902 0.557471 76.4902 1.24515C76.4902 1.93282 75.9328 2.49029 75.2451 2.49029Z" fill="white"/>
<path d="M75.0212 46.5885C74.3335 46.5885 73.7761 46.0311 73.7761 45.3434C73.7761 44.6557 74.3335 44.0982 75.0212 44.0982C75.7089 44.0982 76.2664 44.6557 76.2664 45.3434C76.2664 46.0311 75.7089 46.5885 75.0212 46.5885Z" fill="white"/>
<path d="M75.2451 5.52844C74.5574 5.52844 73.9999 4.97097 73.9999 4.28329C73.9999 3.59562 74.5574 3.03815 75.2451 3.03815C75.9328 3.03815 76.4902 3.59562 76.4902 4.28329C76.4902 4.97097 75.9328 5.52844 75.2451 5.52844Z" fill="white"/>
<path d="M75.0212 49.6242C74.3335 49.6242 73.7761 49.0667 73.7761 48.3791C73.7761 47.6914 74.3335 47.1339 75.0212 47.1339C75.7089 47.1339 76.2664 47.6914 76.2664 48.3791C76.2664 49.0667 75.7089 49.6242 75.0212 49.6242Z" fill="white"/>
<path d="M75.2451 8.56411C74.5574 8.56411 73.9999 8.00664 73.9999 7.31897C73.9999 6.63129 74.5574 6.07382 75.2451 6.07382C75.9328 6.07382 76.4902 6.63129 76.4902 7.31897C76.4902 8.00664 75.9328 8.56411 75.2451 8.56411Z" fill="white"/>
<path d="M72.9991 50.558C74.4709 50.558 75.5728 50.558 77.0446 50.558C77.7319 50.558 78.2835 51.1159 78.3433 51.8007C78.5699 54.4043 79.4477 56.1525 79.6744 58.7561C79.7341 59.4409 79.1701 60 78.4828 60C77.011 60 75.909 60 74.4373 60C73.75 60 73.1971 59.4422 73.1386 58.7573C72.912 56.1537 72.0341 54.4055 71.8075 51.8019C71.7478 51.1171 72.3118 50.558 72.9991 50.558Z" fill="white"/>
<path d="M18.1477 11.8331C20.8262 11.0976 23.6844 10.6986 26.6575 10.6986C29.6306 10.6986 32.4867 11.0997 35.1673 11.8331C36.2809 12.1381 37.2148 11.5176 37.265 10.3643C37.2984 9.56618 37.3339 8.69285 37.3736 7.84877C37.4237 6.69547 36.5462 5.70304 35.3971 5.63619C33.5773 5.53381 31.9497 5.46068 30.3974 5.41472C30.3974 5.39383 30.4037 5.37502 30.4037 5.35413C30.4037 2.95351 28.4501 1 26.0516 1C23.651 1 21.6975 2.95351 21.6975 5.35413C21.6975 5.38965 21.7079 5.42099 21.7079 5.4565C20.5149 5.50247 19.2801 5.55888 17.9221 5.63619C16.7667 5.70095 15.8892 6.69547 15.9414 7.84668C15.979 8.69285 16.0146 9.56618 16.0501 10.3664C16.1002 11.5197 17.0341 12.1381 18.1477 11.8331ZM26.0474 3.08931C27.2968 3.08931 28.3102 4.10472 28.3102 5.35413C28.3102 5.35831 28.3081 5.36249 28.3081 5.36666C26.8038 5.34577 25.3224 5.35413 23.791 5.39174C23.791 5.3792 23.7826 5.36875 23.7826 5.35413C23.7826 4.10472 24.798 3.08931 26.0474 3.08931Z" fill="white"/>
<path d="M35.1067 59.0348C32.447 59.7619 29.6055 60.1568 26.6554 60.1568C23.7053 60.1568 20.868 59.7619 18.2041 59.0348C17.0905 58.7319 16.1545 59.3545 16.1002 60.5078C16.05 61.5922 15.9999 62.7935 15.9435 63.9531C15.8871 65.1064 16.7646 66.0967 17.9179 66.1636C24.5703 66.5438 28.7384 66.5438 35.3929 66.1636C36.5483 66.0946 37.4216 65.1022 37.3673 63.9489C37.3109 62.7873 37.2608 61.5838 37.2106 60.5036C37.1584 59.3503 36.2203 58.7319 35.1067 59.0348Z" fill="white"/>
<path d="M36.8367 14.7205C33.6985 13.6299 30.2637 13.0198 26.6575 13.0198C23.0514 13.0198 19.6166 13.6299 16.4784 14.7205C6.80698 18.0822 0 26.0822 0 35.4256C0 44.7857 6.83414 52.7961 16.5348 56.1474C19.6583 57.2276 23.0723 57.8314 26.6575 57.8314C30.2428 57.8314 33.6588 57.2276 36.7803 56.1474C46.4809 52.7982 53.3151 44.7857 53.3151 35.4256C53.3151 26.0822 46.5081 18.0843 36.8367 14.7205Z" fill="white"/>
<path d="M26.0476 72.3981C27.2015 72.3981 28.1369 71.4627 28.1369 70.3088C28.1369 69.1549 27.2015 68.2195 26.0476 68.2195C24.8937 68.2195 23.9583 69.1549 23.9583 70.3088C23.9583 71.4627 24.8937 72.3981 26.0476 72.3981Z" fill="white"/>
<path d="M26.0476 77.496C27.2015 77.496 28.1369 76.5606 28.1369 75.4067C28.1369 74.2528 27.2015 73.3174 26.0476 73.3174C24.8937 73.3174 23.9583 74.2528 23.9583 75.4067C23.9583 76.5606 24.8937 77.496 26.0476 77.496Z" fill="white"/>
<path d="M26.0476 82.5898C27.2015 82.5898 28.1369 81.6543 28.1369 80.5004C28.1369 79.3466 27.2015 78.4111 26.0476 78.4111C24.8937 78.4111 23.9583 79.3466 23.9583 80.5004C23.9583 81.6543 24.8937 82.5898 26.0476 82.5898Z" fill="white"/>
<path d="M29.4405 126.657C26.971 126.657 25.1219 126.657 22.6524 126.657C21.4991 126.657 20.5735 127.593 20.4732 128.742C20.0929 133.111 18.62 136.044 18.2397 140.413C18.1394 141.562 19.0859 142.5 20.2392 142.5C22.7088 142.5 24.5578 142.5 27.0274 142.5C28.1807 142.5 29.1083 141.564 29.2065 140.415C29.5868 136.046 31.0597 133.113 31.44 128.744C31.5403 127.595 30.5938 126.657 29.4405 126.657Z" fill="white"/>
</svg>
