<svg width="772" height="854" viewBox="0 0 772 854" fill="none" xmlns="http://www.w3.org/2000/svg">
<path d="M713 344H772V358.21H751.384V854H733.419V358.21H713V344Z" fill="white"/>
<path d="M654.945 343.556H708.033V357.38H672.513V370.244H704.577V383.972H672.513V397.028H708.993V410.852H654.945V343.556Z" fill="white"/>
<path d="M583.039 343.556H600.607V373.124L625.855 343.556H646.207L600.607 394.052V410.852H583.039V343.556ZM619.903 369.38L647.743 410.852H626.719L608.191 383.204L619.903 369.38Z" fill="white"/>
<path d="M543.81 343.556C552.77 343.556 559.682 345.636 564.546 349.796C569.41 353.892 571.842 359.684 571.842 367.172C571.842 375.044 569.41 381.188 564.546 385.604C559.682 389.956 552.77 392.132 543.81 392.132H531.138V410.852H513.57V343.556H543.81ZM543.81 378.308C547.458 378.308 550.242 377.412 552.162 375.62C554.146 373.828 555.138 371.172 555.138 367.652C555.138 364.26 554.146 361.7 552.162 359.972C550.242 358.244 547.458 357.38 543.81 357.38H531.138V378.308H543.81ZM540.738 385.7H557.826L573.858 410.852H553.986L540.738 385.7Z" fill="white"/>
<path d="M461.208 343.556H479.256L507.48 410.852H488.76L469.752 361.124L450.36 410.852H432.312L461.208 343.556ZM449.592 385.508H488.856V398.756H449.592V385.508Z" fill="white"/>
<path d="M349.133 343.556H368.237L387.725 383.204L407.117 343.556H426.221V410.852H410.669L410.573 367.748L393.389 404.132H382.061L364.781 367.748V410.852H349.133V343.556Z" fill="white"/>
<path d="M293.642 383.108C293.642 387.46 294.89 390.916 297.386 393.476C299.946 396.036 303.114 397.316 306.89 397.316C310.666 397.316 313.706 396.068 316.01 393.572C318.378 391.012 319.562 387.524 319.562 383.108V37.5L337.13 38.5V383.108C337.13 388.996 335.882 394.116 333.386 398.468C330.954 402.82 327.466 406.18 322.922 408.548C318.378 410.916 313.002 412.1 306.794 412.1C300.586 412.1 295.178 410.916 290.57 408.548C285.962 406.18 282.378 402.82 279.818 398.468C277.322 394.116 276.074 388.996 276.074 383.108V0L293.642 25V383.108Z" fill="white"/>
<path d="M205.32 343.556H222.888V373.124L248.136 343.556H268.488L222.888 394.052V410.852H205.32V343.556ZM242.184 369.38L270.024 410.852H249L230.472 383.204L242.184 369.38Z" fill="white"/>
<path d="M152.958 343.556H171.006L199.23 410.852H180.51L161.502 361.124L142.11 410.852H124.062L152.958 343.556ZM141.342 385.508H180.606V398.756H141.342V385.508Z" fill="white"/>
<path d="M73.464 343.556H131.16V357.764H111V410.852H93.432V357.764H73.464V343.556Z" fill="white"/>
<path d="M36.384 342.5C41.632 342.5 46.432 343.364 50.784 345.092C55.2 346.82 59.04 349.252 62.304 352.388C65.632 355.524 68.192 359.204 69.984 363.428C71.84 367.588 72.768 372.132 72.768 377.06C72.768 382.052 71.84 386.692 69.984 390.98C68.192 395.204 65.632 398.916 62.304 402.116C59.04 405.252 55.2 407.716 50.784 409.508C46.432 411.236 41.632 412.1 36.384 412.1C31.2 412.1 26.4 411.236 21.984 409.508C17.568 407.716 13.696 405.252 10.368 402.116C7.104 398.916 4.544 395.204 2.688 390.98C0.896 386.692 0 382.052 0 377.06C0 372.132 0.896 367.556 2.688 363.332C4.544 359.108 7.104 355.46 10.368 352.388C13.696 349.252 17.568 346.82 21.984 345.092C26.4 343.364 31.2 342.5 36.384 342.5ZM36.576 357.188C34.08 357.188 31.68 357.7 29.376 358.724C27.136 359.684 25.152 361.092 23.424 362.948C21.76 364.74 20.448 366.852 19.488 369.284C18.528 371.652 18.048 374.276 18.048 377.156C18.048 379.972 18.528 382.628 19.488 385.124C20.448 387.556 21.792 389.7 23.52 391.556C25.248 393.348 27.232 394.756 29.472 395.78C31.712 396.804 34.08 397.316 36.576 397.316C39.072 397.316 41.408 396.804 43.584 395.78C45.824 394.756 47.776 393.348 49.44 391.556C51.104 389.7 52.384 387.556 53.28 385.124C54.24 382.628 54.72 379.972 54.72 377.156C54.72 374.276 54.24 371.652 53.28 369.284C52.384 366.852 51.104 364.74 49.44 362.948C47.776 361.092 45.824 359.684 43.584 358.724C41.408 357.7 39.072 357.188 36.576 357.188Z" fill="white"/>
</svg>
